<svg width="100" height="100" viewBox="0 0 100 100" fill="none" xmlns="http://www.w3.org/2000/svg">
    <circle cx="50" cy="50" r="40" fill="#E6F4F1"/>
    <rect x="28" y="20" width="44" height="60" rx="4" fill="white" stroke="#009688" stroke-width="3"/>
    <rect x="34" y="30" width="32" height="3" rx="1.5" fill="#009688"/>
    <rect x="34" y="38" width="24" height="3" rx="1.5" fill="#009688"/>
    <rect x="34" y="46" width="28" height="3" rx="1.5" fill="#009688"/>
    <rect x="34" y="54" width="20" height="3" rx="1.5" fill="#009688"/>
    <rect x="34" y="62" width="26" height="3" rx="1.5" fill="#009688"/>
    <rect x="52" y="14" width="24" height="26" rx="3" transform="rotate(8 52 14)" fill="#4DB6AC" stroke="white" stroke-width="2"/>
    <rect x="58" y="22" width="14" height="2" rx="1" transform="rotate(8 58 22)" fill="white"/>
    <rect x="57" y="27" width="10" height="2" rx="1" transform="rotate(8 57 27)" fill="white"/>
    <rect x="56" y="32" width="12" height="2" rx="1" transform="rotate(8 56 32)" fill="white"/>
</svg> 