<svg width="100" height="100" viewBox="0 0 100 100" fill="none" xmlns="http://www.w3.org/2000/svg">
    <circle cx="50" cy="50" r="40" fill="#F1E8FF"/>
    <path d="M70 50C70 61.0457 61.0457 70 50 70C38.9543 70 30 61.0457 30 50C30 38.9543 38.9543 30 50 30C61.0457 30 70 38.9543 70 50Z" fill="#8338EC"/>
    <path d="M58 50C58 54.4183 54.4183 58 50 58C45.5817 58 42 54.4183 42 50C42 45.5817 45.5817 42 50 42C54.4183 42 58 45.5817 58 50Z" fill="white"/>
    <path d="M50 30C54.4183 30 58 26.4183 58 22C58 17.5817 54.4183 14 50 14C45.5817 14 42 17.5817 42 22C42 26.4183 45.5817 30 50 30Z" fill="#FF5D8F"/>
    <path d="M30 50C30 54.4183 26.4183 58 22 58C17.5817 58 14 54.4183 14 50C14 45.5817 17.5817 42 22 42C26.4183 42 30 45.5817 30 50Z" fill="#59C3FF"/>
    <path d="M50 70C54.4183 70 58 73.5817 58 78C58 82.4183 54.4183 86 50 86C45.5817 86 42 82.4183 42 78C42 73.5817 45.5817 70 50 70Z" fill="#FFD747"/>
    <path d="M70 50C70 54.4183 73.5817 58 78 58C82.4183 58 86 54.4183 86 50C86 45.5817 82.4183 42 78 42C73.5817 42 70 45.5817 70 50Z" fill="#42C4A5"/>
    <path d="M35.6967 35.6967C38.8677 32.5257 38.8677 27.4743 35.6967 24.3033C32.5257 21.1324 27.4743 21.1324 24.3033 24.3033C21.1324 27.4743 21.1324 32.5257 24.3033 35.6967C27.4743 38.8677 32.5257 38.8677 35.6967 35.6967Z" fill="#4361EE"/>
    <path d="M35.6967 64.3033C38.8677 67.4743 38.8677 72.5257 35.6967 75.6967C32.5257 78.8676 27.4743 78.8676 24.3033 75.6967C21.1324 72.5257 21.1324 67.4743 24.3033 64.3033C27.4743 61.1324 32.5257 61.1324 35.6967 64.3033Z" fill="#FF912B"/>
    <path d="M64.3033 35.6967C67.4743 38.8677 72.5257 38.8677 75.6967 35.6967C78.8676 32.5257 78.8676 27.4743 75.6967 24.3033C72.5257 21.1324 67.4743 21.1324 64.3033 24.3033C61.1324 27.4743 61.1324 32.5257 64.3033 35.6967Z" fill="#18A0FB"/>
    <path d="M64.3033 64.3033C67.4743 61.1324 72.5257 61.1324 75.6967 64.3033C78.8676 67.4743 78.8676 72.5257 75.6967 75.6967C72.5257 78.8676 67.4743 78.8676 64.3033 75.6967C61.1324 72.5257 61.1324 67.4743 64.3033 64.3033Z" fill="#00BFA6"/>
</svg> 