<svg xmlns="http://www.w3.org/2000/svg" viewBox="0 0 100 100" width="100" height="100">
  <defs>
    <linearGradient id="dataGradient" x1="0%" y1="0%" x2="100%" y2="100%">
      <stop offset="0%" stop-color="#09FBD3" stop-opacity="1"/>
      <stop offset="100%" stop-color="#00FFFF" stop-opacity="1"/>
    </linearGradient>
    <filter id="glow" x="-20%" y="-20%" width="140%" height="140%">
      <feGaussianBlur stdDeviation="3" result="blur"/>
      <feComposite in="SourceGraphic" in2="blur" operator="over"/>
    </filter>
  </defs>
  
  <!-- DataShield Logo - Hexagon with Data Points -->
  <path d="M50 20 L75 35 L75 65 L50 80 L25 65 L25 35 Z" 
        fill="#161B22" stroke="url(#dataGradient)" stroke-width="2" filter="url(#glow)"/>
  
  <!-- Data Visualization Lines -->
  <path d="M35 60 L45 45 L55 55 L65 40" 
        fill="none" stroke="url(#dataGradient)" stroke-width="2" stroke-linecap="round"/>
  
  <!-- Database Symbol -->
  <ellipse cx="50" cy="35" rx="15" ry="5" fill="none" stroke="#8A2BE2" stroke-width="1.5"/>
  <path d="M35 35 L35 55 C35 60, 42 65, 50 65 C58 65, 65 60, 65 55 L65 35" 
        fill="none" stroke="#8A2BE2" stroke-width="1.5"/>
  <ellipse cx="50" cy="55" rx="15" ry="5" fill="none" stroke="#8A2BE2" stroke-width="1.5"/>
  
  <!-- Data Points -->
  <circle cx="35" cy="60" r="3" fill="#09FBD3"/>
  <circle cx="45" cy="45" r="3" fill="#09FBD3"/>
  <circle cx="55" cy="55" r="3" fill="#09FBD3"/>
  <circle cx="65" cy="40" r="3" fill="#09FBD3"/>
  
  <!-- Security Shield Icon -->
  <path d="M50 30 L55 32 L55 38 L50 40 L45 38 L45 32 Z" 
        fill="#8A2BE2" opacity="0.8"/>
  <path d="M49 33 L51 33 L51 37 L49 37 Z" fill="#00FFFF"/>
</svg> 