<svg xmlns="http://www.w3.org/2000/svg" viewBox="0 0 400 200" width="400" height="200">
  <defs>
    <linearGradient id="bg-gradient" x1="0%" y1="0%" x2="100%" y2="100%">
      <stop offset="0%" stop-color="#0D1117" stop-opacity="1"/>
      <stop offset="100%" stop-color="#161B22" stop-opacity="1"/>
    </linearGradient>
    <linearGradient id="purple-gradient" x1="0%" y1="0%" x2="100%" y2="100%">
      <stop offset="0%" stop-color="#8A2BE2" stop-opacity="1"/>
      <stop offset="100%" stop-color="#FF00FF" stop-opacity="1"/>
    </linearGradient>
    <linearGradient id="cyan-gradient" x1="0%" y1="0%" x2="100%" y2="100%">
      <stop offset="0%" stop-color="#00FFFF" stop-opacity="1"/>
      <stop offset="100%" stop-color="#09FBD3" stop-opacity="1"/>
    </linearGradient>
    <filter id="glow" x="-20%" y="-20%" width="140%" height="140%">
      <feGaussianBlur stdDeviation="4" result="blur"/>
      <feComposite in="SourceGraphic" in2="blur" operator="over"/>
    </filter>
  </defs>
  
  <!-- Background -->
  <rect x="0" y="0" width="400" height="200" fill="url(#bg-gradient)"/>
  
  <!-- API Server Representation -->
  <rect x="250" y="40" width="100" height="120" rx="5" fill="#21262D" stroke="url(#purple-gradient)" stroke-width="2"/>
  <rect x="260" y="50" width="80" height="20" rx="3" fill="#0D1117" stroke="#8A2BE2" stroke-width="1"/>
  <text x="275" y="65" font-family="sans-serif" font-size="12" fill="#8A2BE2">API Server</text>
  
  <!-- API Endpoints -->
  <rect x="260" y="80" width="80" height="15" rx="2" fill="#161B22"/>
  <text x="265" y="91" font-family="monospace" font-size="9" fill="#00FFFF">GET /api/users</text>
  
  <rect x="260" y="100" width="80" height="15" rx="2" fill="#161B22"/>
  <text x="265" y="111" font-family="monospace" font-size="9" fill="#00FFFF">GET /api/users/admin</text>
  
  <rect x="260" y="120" width="80" height="15" rx="2" fill="rgba(254, 83, 187, 0.2)" stroke="#FE53BB" stroke-width="1"/>
  <text x="265" y="131" font-family="monospace" font-size="9" fill="#FF00FF">GET /api/users/1337</text>
  
  <!-- Client Side -->
  <rect x="60" y="60" width="90" height="80" rx="5" fill="#21262D" stroke="url(#cyan-gradient)" stroke-width="2"/>
  <text x="80" y="80" font-family="sans-serif" font-size="12" fill="#00FFFF">Client</text>
  
  <!-- Client API Request -->
  <rect x="65" y="90" width="80" height="40" rx="2" fill="#0D1117"/>
  <text x="70" y="105" font-family="monospace" font-size="7" fill="#00FFFF">fetch('/api/users/1337',</text>
  <text x="70" y="115" font-family="monospace" font-size="7" fill="#00FFFF">  {headers: {</text>
  <text x="70" y="125" font-family="monospace" font-size="7" fill="#FF00FF">    'user-id': '1'</text>
  <text x="70" y="135" font-family="monospace" font-size="7" fill="#00FFFF">}});</text>
  
  <!-- API Communication -->
  <path d="M150 100 L175 100 L175 70 L250 70" fill="none" stroke="url(#cyan-gradient)" stroke-width="1.5" stroke-dasharray="5,3"/>
  <path d="M250 110 L200 110 L200 140 L150 140" fill="none" stroke="url(#purple-gradient)" stroke-width="1.5" stroke-dasharray="5,3"/>
  
  <!-- Arrow Tips -->
  <polygon points="245,70 250,70 247.5,74" fill="#00FFFF"/>
  <polygon points="155,140 150,140 152.5,136" fill="#FF00FF"/>
  
  <!-- Warning Signs -->
  <circle cx="210" cy="80" r="10" fill="#161B22" stroke="#FF00FF" stroke-width="1.5"/>
  <text x="207" y="84" font-family="sans-serif" font-weight="bold" font-size="12" fill="#FF00FF">!</text>
  
  <circle cx="180" cy="130" r="10" fill="#161B22" stroke="#FF00FF" stroke-width="1.5"/>
  <text x="177" y="134" font-family="sans-serif" font-weight="bold" font-size="12" fill="#FF00FF">!</text>
  
  <!-- API Security Types -->
  <rect x="60" y="150" width="280" height="20" rx="5" fill="#0D1117" stroke="url(#purple-gradient)" stroke-width="1"/>
  <text x="70" y="164" font-family="sans-serif" font-size="9" fill="#F5F5F5">• BOLA (IDOR) • Missing Auth • Excessive Data Exposure • Rate Limiting</text>
  
  <!-- Title -->
  <text x="200" y="180" font-family="sans-serif" font-weight="bold" font-size="14" fill="#F5F5F5" text-anchor="middle">API Security Best Practices</text>
</svg> 