<svg xmlns="http://www.w3.org/2000/svg" viewBox="0 0 24 24" width="64" height="64" fill="#4285F4">
  <path d="M7 18C5.9 18 5 18.9 5 20S5.9 22 7 22 9 21.1 9 20 8.1 18 7 18zM17 18C15.9 18 15.0001 18.9 15.0001 20S15.9 22 17 22 19 21.1 19 20 18.1 18 17 18zM7.2002 14.0001H14.5L15.75 18H19L17.5 9.5L9.5 10.2998L7.2002 14.0001zM12 2C10.34 2 9 3.34 9 5S10.34 8 12 8 15 6.66 15 5 13.66 2 12 2z"/>
  <path d="M22 9.5L12 4.5L2 9.5M19 13V17.5" stroke="#4285F4" stroke-width="1.5" stroke-linecap="round" stroke-linejoin="round" fill="none"/>
</svg> 