<svg xmlns="http://www.w3.org/2000/svg" width="48" height="48" viewBox="0 0 48 48" fill="none">
  <rect width="48" height="48" rx="8" fill="#FBBC05" fill-opacity="0.1"/>
  <path d="M32 14H30V12H28V14H20V12H18V14H16C14.9 14 14 14.9 14 16V32C14 33.1 14.9 34 16 34H32C33.1 34 34 33.1 34 32V16C34 14.9 33.1 14 32 14ZM32 32H16V20H32V32ZM32 18H16V16H32V18Z" fill="#FBBC05"/>
  <path d="M24 22C25.1 22 26 22.9 26 24C26 25.1 25.1 26 24 26C22.9 26 22 25.1 22 24C22 22.9 22.9 22 24 22ZM24 28C26.2 28 28 26.2 28 24C28 21.8 26.2 20 24 20C21.8 20 20 21.8 20 24C20 26.2 21.8 28 24 28ZM24 29C21.3 29 16 30.3 16 33V34H32V33C32 30.3 26.7 29 24 29Z" fill="#FBBC05"/>
</svg> 