<svg xmlns="http://www.w3.org/2000/svg" width="48" height="48" viewBox="0 0 48 48" fill="none">
  <rect width="48" height="48" rx="8" fill="#4285F4" fill-opacity="0.1"/>
  <path d="M32 10V38H16V10H32ZM34 6H14C12.8954 6 12 6.89543 12 8V40C12 41.1046 12.8954 42 14 42H34C35.1046 42 36 41.1046 36 40V8C36 6.89543 35.1046 6 34 6Z" fill="#4285F4"/>
  <path d="M24 23L20.433 24.7828L21.1606 20.8914L18.3211 18.2171L22.2164 17.6086L24 14L25.7836 17.6086L29.6789 18.2171L26.8394 20.8914L27.567 24.7828L24 23Z" fill="#4285F4"/>
  <path d="M18 28H30V32H18V28Z" fill="#4285F4"/>
</svg> 